<?xml version="1.0" encoding="UTF-8" standalone="no"?>
<!DOCTYPE svg PUBLIC "-//W3C//DTD SVG 1.1//EN"
 "http://www.w3.org/Graphics/SVG/1.1/DTD/svg11.dtd">
<!-- Generated by graphviz version 2.40.1 (20161225.0304)
 -->
<!-- Title: dependencies Pages: 1 -->
<svg width="2611pt" height="284pt"
 viewBox="0.00 0.00 2611.00 284.00" xmlns="http://www.w3.org/2000/svg" xmlns:xlink="http://www.w3.org/1999/xlink">
<g id="graph0" class="graph" transform="scale(1 1) rotate(0) translate(4 280)">
<title>dependencies</title>
<polygon fill="#ffffff" stroke="transparent" points="-4,4 -4,-280 2607,-280 2607,4 -4,4"/>
<text text-anchor="start" x="1280.5091" y="-42.4" font-family="sans-serif" font-weight="bold" font-size="14.00" fill="#000000">Legend</text>
<polygon fill="#ffffb3" stroke="transparent" points="1067.5,-10 1067.5,-30 1087.5,-30 1087.5,-10 1067.5,-10"/>
<text text-anchor="start" x="1091.129" y="-15.4" font-family="sans-serif" font-size="14.00" fill="#000000"> &#160;Declarations</text>
<polygon fill="#8dd3c7" stroke="transparent" points="1180.5,-10 1180.5,-30 1200.5,-30 1200.5,-10 1180.5,-10"/>
<text text-anchor="start" x="1204.2251" y="-15.4" font-family="sans-serif" font-size="14.00" fill="#000000"> &#160;Module</text>
<polygon fill="#80b1d3" stroke="transparent" points="1266.5,-10 1266.5,-30 1286.5,-30 1286.5,-10 1266.5,-10"/>
<text text-anchor="start" x="1290.2812" y="-15.4" font-family="sans-serif" font-size="14.00" fill="#000000"> &#160;Bootstrap</text>
<polygon fill="#fdb462" stroke="transparent" points="1363.5,-10 1363.5,-30 1383.5,-30 1383.5,-10 1363.5,-10"/>
<text text-anchor="start" x="1387.1732" y="-15.4" font-family="sans-serif" font-size="14.00" fill="#000000"> &#160;Providers</text>
<polygon fill="#fb8072" stroke="transparent" points="1459.5,-10 1459.5,-30 1479.5,-30 1479.5,-10 1459.5,-10"/>
<text text-anchor="start" x="1483.2258" y="-15.4" font-family="sans-serif" font-size="14.00" fill="#000000"> &#160;Exports</text>
<g id="clust1" class="cluster">
<title>cluster_AppModule</title>
<polygon fill="none" stroke="#000000" stroke-dasharray="1,5" points="8,-70 8,-268 2595,-268 2595,-70 8,-70"/>
</g>
<g id="clust2" class="cluster">
<title>cluster_AppModule_declarations</title>
<polygon fill="none" stroke="#000000" points="500,-78 500,-130 2587,-130 2587,-78 500,-78"/>
</g>
<g id="clust17" class="cluster">
<title>cluster_AppModule_imports</title>
<polygon fill="none" stroke="#000000" points="244,-78 244,-130 492,-130 492,-78 244,-78"/>
</g>
<g id="clust19" class="cluster">
<title>cluster_AppModule_bootstrap</title>
<polygon fill="none" stroke="#000000" points="1304,-208 1304,-260 1428,-260 1428,-208 1304,-208"/>
</g>
<g id="clust20" class="cluster">
<title>cluster_AppModule_providers</title>
<polygon fill="none" stroke="#000000" points="16,-78 16,-130 236,-130 236,-78 16,-78"/>
</g>
<!-- AppComponent -->
<g id="node1" class="node">
<title>AppComponent</title>
<polygon fill="#ffffb3" stroke="#000000" points="2578.9399,-122 2473.0601,-122 2473.0601,-86 2578.9399,-86 2578.9399,-122"/>
<text text-anchor="middle" x="2526" y="-99.8" font-family="Times,serif" font-size="14.00" fill="#000000">AppComponent</text>
</g>
<!-- AppModule -->
<g id="node15" class="node">
<title>AppModule</title>
<polygon fill="#8dd3c7" stroke="#000000" points="1407.6571,-187 1404.6571,-191 1383.6571,-191 1380.6571,-187 1324.3429,-187 1324.3429,-151 1407.6571,-151 1407.6571,-187"/>
<text text-anchor="middle" x="1366" y="-164.8" font-family="Times,serif" font-size="14.00" fill="#000000">AppModule</text>
</g>
<!-- AppComponent&#45;&gt;AppModule -->
<g id="edge1" class="edge">
<title>AppComponent&#45;&gt;AppModule</title>
<path fill="none" stroke="#000000" d="M2526,-122.3228C2526,-145.6602 2526,-183 2526,-183 2526,-183 1417.9703,-183 1417.9703,-183"/>
<polygon fill="#000000" stroke="#000000" points="1417.9704,-179.5001 1407.9703,-183 1417.9703,-186.5001 1417.9704,-179.5001"/>
</g>
<!-- CalendarDirective -->
<g id="node2" class="node">
<title>CalendarDirective</title>
<polygon fill="#ffffb3" stroke="#000000" points="2455.115,-122 2336.885,-122 2336.885,-86 2455.115,-86 2455.115,-122"/>
<text text-anchor="middle" x="2396" y="-99.8" font-family="Times,serif" font-size="14.00" fill="#000000">CalendarDirective</text>
</g>
<!-- CalendarDirective&#45;&gt;AppModule -->
<g id="edge2" class="edge">
<title>CalendarDirective&#45;&gt;AppModule</title>
<path fill="none" stroke="#000000" d="M2396,-122.1554C2396,-144.3519 2396,-179 2396,-179 2396,-179 1417.9746,-179 1417.9746,-179"/>
<polygon fill="#000000" stroke="#000000" points="1417.9747,-175.5001 1407.9746,-179 1417.9746,-182.5001 1417.9747,-175.5001"/>
</g>
<!-- ConverterPipe -->
<g id="node3" class="node">
<title>ConverterPipe</title>
<polygon fill="#ffffb3" stroke="#000000" points="2318.3655,-122 2221.6345,-122 2221.6345,-86 2318.3655,-86 2318.3655,-122"/>
<text text-anchor="middle" x="2270" y="-99.8" font-family="Times,serif" font-size="14.00" fill="#000000">ConverterPipe</text>
</g>
<!-- ConverterPipe&#45;&gt;AppModule -->
<g id="edge3" class="edge">
<title>ConverterPipe&#45;&gt;AppModule</title>
<path fill="none" stroke="#000000" d="M2270,-122.2843C2270,-143.3211 2270,-175 2270,-175 2270,-175 1417.7888,-175 1417.7888,-175"/>
<polygon fill="#000000" stroke="#000000" points="1417.7888,-171.5001 1407.7888,-175 1417.7887,-178.5001 1417.7888,-171.5001"/>
</g>
<!-- CurrencyComponent -->
<g id="node4" class="node">
<title>CurrencyComponent</title>
<polygon fill="#ffffb3" stroke="#000000" points="2203.9201,-122 2070.0799,-122 2070.0799,-86 2203.9201,-86 2203.9201,-122"/>
<text text-anchor="middle" x="2137" y="-99.8" font-family="Times,serif" font-size="14.00" fill="#000000">CurrencyComponent</text>
</g>
<!-- CurrencyComponent&#45;&gt;AppModule -->
<g id="edge4" class="edge">
<title>CurrencyComponent&#45;&gt;AppModule</title>
<path fill="none" stroke="#000000" d="M2137,-122.308C2137,-142.1455 2137,-171 2137,-171 2137,-171 1417.7257,-171 1417.7257,-171"/>
<polygon fill="#000000" stroke="#000000" points="1417.7257,-167.5001 1407.7257,-171 1417.7256,-174.5001 1417.7257,-167.5001"/>
</g>
<!-- DemoComponent -->
<g id="node5" class="node">
<title>DemoComponent</title>
<polygon fill="#ffffb3" stroke="#000000" points="2052.5451,-122 1937.4549,-122 1937.4549,-86 2052.5451,-86 2052.5451,-122"/>
<text text-anchor="middle" x="1995" y="-99.8" font-family="Times,serif" font-size="14.00" fill="#000000">DemoComponent</text>
</g>
<!-- DemoComponent&#45;&gt;AppModule -->
<g id="edge5" class="edge">
<title>DemoComponent&#45;&gt;AppModule</title>
<path fill="none" stroke="#000000" d="M1995,-122.2222C1995,-140.8285 1995,-167 1995,-167 1995,-167 1417.7576,-167 1417.7576,-167"/>
<polygon fill="#000000" stroke="#000000" points="1417.7576,-163.5001 1407.7576,-167 1417.7575,-170.5001 1417.7576,-163.5001"/>
</g>
<!-- DynamicFormsComponent -->
<g id="node6" class="node">
<title>DynamicFormsComponent</title>
<polygon fill="#ffffb3" stroke="#000000" points="1919.4283,-122 1750.5717,-122 1750.5717,-86 1919.4283,-86 1919.4283,-122"/>
<text text-anchor="middle" x="1835" y="-99.8" font-family="Times,serif" font-size="14.00" fill="#000000">DynamicFormsComponent</text>
</g>
<!-- DynamicFormsComponent&#45;&gt;AppModule -->
<g id="edge6" class="edge">
<title>DynamicFormsComponent&#45;&gt;AppModule</title>
<path fill="none" stroke="#000000" d="M1835,-122.0225C1835,-139.3734 1835,-163 1835,-163 1835,-163 1418.0334,-163 1418.0334,-163"/>
<polygon fill="#000000" stroke="#000000" points="1418.0334,-159.5001 1408.0334,-163 1418.0333,-166.5001 1418.0334,-159.5001"/>
</g>
<!-- ErrorComponent -->
<g id="node7" class="node">
<title>ErrorComponent</title>
<polygon fill="#ffffb3" stroke="#000000" points="1732.3669,-122 1621.6331,-122 1621.6331,-86 1732.3669,-86 1732.3669,-122"/>
<text text-anchor="middle" x="1677" y="-99.8" font-family="Times,serif" font-size="14.00" fill="#000000">ErrorComponent</text>
</g>
<!-- ErrorComponent&#45;&gt;AppModule -->
<g id="edge7" class="edge">
<title>ErrorComponent&#45;&gt;AppModule</title>
<path fill="none" stroke="#000000" d="M1677,-122.0091C1677,-138.0494 1677,-159 1677,-159 1677,-159 1417.9428,-159 1417.9428,-159"/>
<polygon fill="#000000" stroke="#000000" points="1417.9429,-155.5001 1407.9428,-159 1417.9428,-162.5001 1417.9429,-155.5001"/>
</g>
<!-- ModelDrivenComponent -->
<g id="node8" class="node">
<title>ModelDrivenComponent</title>
<polygon fill="#ffffb3" stroke="#000000" points="1603.2548,-122 1446.7452,-122 1446.7452,-86 1603.2548,-86 1603.2548,-122"/>
<text text-anchor="middle" x="1525" y="-99.8" font-family="Times,serif" font-size="14.00" fill="#000000">ModelDrivenComponent</text>
</g>
<!-- ModelDrivenComponent&#45;&gt;AppModule -->
<g id="edge8" class="edge">
<title>ModelDrivenComponent&#45;&gt;AppModule</title>
<path fill="none" stroke="#000000" d="M1525,-122.1243C1525,-136.7832 1525,-155 1525,-155 1525,-155 1417.7754,-155 1417.7754,-155"/>
<polygon fill="#000000" stroke="#000000" points="1417.7754,-151.5001 1407.7754,-155 1417.7753,-158.5001 1417.7754,-151.5001"/>
</g>
<!-- ProductComponent -->
<g id="node9" class="node">
<title>ProductComponent</title>
<polygon fill="#ffffb3" stroke="#000000" points="1428.3809,-122 1303.6191,-122 1303.6191,-86 1428.3809,-86 1428.3809,-122"/>
<text text-anchor="middle" x="1366" y="-99.8" font-family="Times,serif" font-size="14.00" fill="#000000">ProductComponent</text>
</g>
<!-- ProductComponent&#45;&gt;AppModule -->
<g id="edge9" class="edge">
<title>ProductComponent&#45;&gt;AppModule</title>
<path fill="none" stroke="#000000" d="M1366,-122.1061C1366,-122.1061 1366,-140.991 1366,-140.991"/>
<polygon fill="#000000" stroke="#000000" points="1362.5001,-140.9909 1366,-150.991 1369.5001,-140.991 1362.5001,-140.9909"/>
</g>
<!-- ProductListComponent -->
<g id="node10" class="node">
<title>ProductListComponent</title>
<polygon fill="#ffffb3" stroke="#000000" points="1285.1596,-122 1138.8404,-122 1138.8404,-86 1285.1596,-86 1285.1596,-122"/>
<text text-anchor="middle" x="1212" y="-99.8" font-family="Times,serif" font-size="14.00" fill="#000000">ProductListComponent</text>
</g>
<!-- ProductListComponent&#45;&gt;AppModule -->
<g id="edge10" class="edge">
<title>ProductListComponent&#45;&gt;AppModule</title>
<path fill="none" stroke="#000000" d="M1212,-122.1243C1212,-136.7832 1212,-155 1212,-155 1212,-155 1314.3254,-155 1314.3254,-155"/>
<polygon fill="#000000" stroke="#000000" points="1314.3254,-158.5001 1324.3254,-155 1314.3253,-151.5001 1314.3254,-158.5001"/>
</g>
<!-- ShowErrorsComponent -->
<g id="node11" class="node">
<title>ShowErrorsComponent</title>
<polygon fill="#ffffb3" stroke="#000000" points="1121.2007,-122 972.7993,-122 972.7993,-86 1121.2007,-86 1121.2007,-122"/>
<text text-anchor="middle" x="1047" y="-99.8" font-family="Times,serif" font-size="14.00" fill="#000000">ShowErrorsComponent</text>
</g>
<!-- ShowErrorsComponent&#45;&gt;AppModule -->
<g id="edge11" class="edge">
<title>ShowErrorsComponent&#45;&gt;AppModule</title>
<path fill="none" stroke="#000000" d="M1047,-122.0091C1047,-138.0494 1047,-159 1047,-159 1047,-159 1314.2963,-159 1314.2963,-159"/>
<polygon fill="#000000" stroke="#000000" points="1314.2964,-162.5001 1324.2963,-159 1314.2963,-155.5001 1314.2964,-162.5001"/>
</g>
<!-- TemplateDrivenComponent -->
<g id="node12" class="node">
<title>TemplateDrivenComponent</title>
<polygon fill="#ffffb3" stroke="#000000" points="954.573,-122 781.427,-122 781.427,-86 954.573,-86 954.573,-122"/>
<text text-anchor="middle" x="868" y="-99.8" font-family="Times,serif" font-size="14.00" fill="#000000">TemplateDrivenComponent</text>
</g>
<!-- TemplateDrivenComponent&#45;&gt;AppModule -->
<g id="edge12" class="edge">
<title>TemplateDrivenComponent&#45;&gt;AppModule</title>
<path fill="none" stroke="#000000" d="M868,-122.0225C868,-139.3734 868,-163 868,-163 868,-163 1313.97,-163 1313.97,-163"/>
<polygon fill="#000000" stroke="#000000" points="1313.97,-166.5001 1323.97,-163 1313.97,-159.5001 1313.97,-166.5001"/>
</g>
<!-- UserComponent -->
<g id="node13" class="node">
<title>UserComponent</title>
<polygon fill="#ffffb3" stroke="#000000" points="763.7591,-122 656.2409,-122 656.2409,-86 763.7591,-86 763.7591,-122"/>
<text text-anchor="middle" x="710" y="-99.8" font-family="Times,serif" font-size="14.00" fill="#000000">UserComponent</text>
</g>
<!-- UserComponent&#45;&gt;AppModule -->
<g id="edge13" class="edge">
<title>UserComponent&#45;&gt;AppModule</title>
<path fill="none" stroke="#000000" d="M710,-122.2222C710,-140.8285 710,-167 710,-167 710,-167 1314.2168,-167 1314.2168,-167"/>
<polygon fill="#000000" stroke="#000000" points="1314.2168,-170.5001 1324.2168,-167 1314.2168,-163.5001 1314.2168,-170.5001"/>
</g>
<!-- UserListComponent -->
<g id="node14" class="node">
<title>UserListComponent</title>
<polygon fill="#ffffb3" stroke="#000000" points="637.538,-122 508.462,-122 508.462,-86 637.538,-86 637.538,-122"/>
<text text-anchor="middle" x="573" y="-99.8" font-family="Times,serif" font-size="14.00" fill="#000000">UserListComponent</text>
</g>
<!-- UserListComponent&#45;&gt;AppModule -->
<g id="edge14" class="edge">
<title>UserListComponent&#45;&gt;AppModule</title>
<path fill="none" stroke="#000000" d="M573,-122.308C573,-142.1455 573,-171 573,-171 573,-171 1314.2035,-171 1314.2035,-171"/>
<polygon fill="#000000" stroke="#000000" points="1314.2035,-174.5001 1324.2035,-171 1314.2035,-167.5001 1314.2035,-174.5001"/>
</g>
<!-- AppComponent  -->
<g id="node18" class="node">
<title>AppComponent </title>
<polygon fill="#80b1d3" stroke="#000000" points="1420.439,-252 1311.561,-252 1311.561,-216 1420.439,-216 1420.439,-252"/>
<text text-anchor="middle" x="1366" y="-229.8" font-family="Times,serif" font-size="14.00" fill="#000000">AppComponent </text>
</g>
<!-- AppModule&#45;&gt;AppComponent  -->
<g id="edge17" class="edge">
<title>AppModule&#45;&gt;AppComponent </title>
<path fill="none" stroke="#000000" stroke-dasharray="1,5" d="M1366,-187.1061C1366,-187.1061 1366,-205.991 1366,-205.991"/>
<polygon fill="#000000" stroke="#000000" points="1362.5001,-205.9909 1366,-215.991 1369.5001,-205.991 1362.5001,-205.9909"/>
</g>
<!-- AppRoutingModule -->
<g id="node16" class="node">
<title>AppRoutingModule</title>
<polygon fill="#8dd3c7" stroke="#000000" points="484.2744,-122 481.2744,-126 460.2744,-126 457.2744,-122 355.7256,-122 355.7256,-86 484.2744,-86 484.2744,-122"/>
<text text-anchor="middle" x="420" y="-99.8" font-family="Times,serif" font-size="14.00" fill="#000000">AppRoutingModule</text>
</g>
<!-- AppRoutingModule&#45;&gt;AppModule -->
<g id="edge15" class="edge">
<title>AppRoutingModule&#45;&gt;AppModule</title>
<path fill="none" stroke="#000000" d="M420,-122.2843C420,-143.3211 420,-175 420,-175 420,-175 1314.1309,-175 1314.1309,-175"/>
<polygon fill="#000000" stroke="#000000" points="1314.131,-178.5001 1324.1309,-175 1314.1309,-171.5001 1314.131,-178.5001"/>
</g>
<!-- UserModule -->
<g id="node17" class="node">
<title>UserModule</title>
<polygon fill="#8dd3c7" stroke="#000000" points="337.9762,-122 334.9762,-126 313.9762,-126 310.9762,-122 252.0238,-122 252.0238,-86 337.9762,-86 337.9762,-122"/>
<text text-anchor="middle" x="295" y="-99.8" font-family="Times,serif" font-size="14.00" fill="#000000">UserModule</text>
</g>
<!-- UserModule&#45;&gt;AppModule -->
<g id="edge16" class="edge">
<title>UserModule&#45;&gt;AppModule</title>
<path fill="none" stroke="#000000" d="M295,-122.1554C295,-144.3519 295,-179 295,-179 295,-179 1314.0155,-179 1314.0155,-179"/>
<polygon fill="#000000" stroke="#000000" points="1314.0156,-182.5001 1324.0155,-179 1314.0155,-175.5001 1314.0156,-182.5001"/>
</g>
<!-- AuthInterceptorService -->
<g id="node19" class="node">
<title>AuthInterceptorService</title>
<ellipse fill="#fdb462" stroke="#000000" cx="126" cy="-104" rx="101.8225" ry="18"/>
<text text-anchor="middle" x="126" y="-99.8" font-family="Times,serif" font-size="14.00" fill="#000000">AuthInterceptorService</text>
</g>
<!-- AuthInterceptorService&#45;&gt;AppModule -->
<g id="edge18" class="edge">
<title>AuthInterceptorService&#45;&gt;AppModule</title>
<path fill="none" stroke="#000000" d="M126,-122.3228C126,-145.6602 126,-183 126,-183 126,-183 1314.0325,-183 1314.0325,-183"/>
<polygon fill="#000000" stroke="#000000" points="1314.0325,-186.5001 1324.0325,-183 1314.0324,-179.5001 1314.0325,-186.5001"/>
</g>
</g>
</svg>
